:SAMPLES-PER-SECOND 30
:FULLY-SPECIFIED
:DEGREES
216
root  -5.42309 40.421 -0.455649 -1.01605 -78.3972 2.01129
RightUpLeg  -0.294961 -5.24754 -2.06486
RightLeg  8.58364 -33.0872 -2.23009
RightFoot  -5.4175 -0.259119 4.29349
RightToes  -3.11842e-008 1.75238e-005 3.56266e-009
Spine  3.0084 -2.83084 -2.61687
Spine1  3.32905 -2.86293 1.63585
HEad  -28.3426 5.27746 -5.92277
LeftShoulder1  2.94269 -5.92955 -25.0301
LeftArm  11.1963 -30.1613 -61.0992
LeftForeArm  166.156 -65.0127 -158.545
LeftHand  -0.945007 -6.20853 9.77148
RightShoulder  2.71167 6.43455 20.9714
RightArm  29.0933 -57.2961 18.6761
RightForeArm  128.746 78.6346 121.334
RightHand  -1.27776 10.7688 -9.54506
LeftUpLeg  -10.1526 1.3335 3.79625
LeftLeg  20.4416 -0.577768 0.0645817
LeftFoot  -6.12721 0.461355 -9.25181
LeftToes  4.78904e-008 1.4679e-008 1.35657e-009
217
root  -5.41343 40.3712 -0.184971 2.64557 -78.37 -2.25934
RightUpLeg  0.277057 -5.31015 -1.78658
RightLeg  8.84955 -32.8986 -2.08682
RightFoot  -5.55205 -0.275576 4.69855
RightToes  -3.11842e-008 1.75238e-005 3.56266e-009
Spine  2.61529 -3.07507 -2.54771
Spine1  4.79284 -3.18476 1.86789
HEad  -28.0339 5.67026 -5.02595
LeftShoulder1  3.04839 -6.17018 -25.3595
LeftArm  11.3062 -27.187 -58.2711
LeftForeArm  166.312 -64.6061 -158.928
LeftHand  -0.876465 -6.78617 8.68005
RightShoulder  2.76756 6.3776 21.745
RightArm  29.706 -54.4729 17.4407
RightForeArm  126.277 78.8538 119.2
RightHand  -1.32847 11.3829 -9.56317
LeftUpLeg  -7.9771 -1.41481 3.87633
LeftLeg  17.8131 0.808639 0.607488
LeftFoot  -6.9043 0.247862 -5.31039
LeftToes  4.78904e-008 1.4679e-008 1.35657e-009
218
root  -5.37715 40.3781 0.098999 4.40912 -78.6822 -4.82043
RightUpLeg  1.0258 -5.11598 -1.78542
RightLeg  9.02559 -32.5043 -2.21008
RightFoot  -5.5084 -0.298547 5.11965
RightToes  -3.11842e-008 1.75238e-005 3.56266e-009
Spine  2.0634 -2.91461 -4.13249
Spine1  7.29335 -3.51505 3.60126
HEad  -29.5364 6.33131 -5.60267
LeftShoulder1  3.30695 -6.52998 -26.857
LeftArm  11.5098 -22.8009 -54.8317
LeftForeArm  165.361 -65.0668 -158.399
LeftHand  -0.955238 -7.27234 9.10086
RightShoulder  2.77293 6.16655 22.4624
RightArm  27.1657 -50.1542 19.0069
RightForeArm  123.082 78.9336 117.596
RightHand  -1.31747 11.2004 -9.58582
LeftUpLeg  -5.51596 -1.20386 3.65875
LeftLeg  15.0182 1.9052 0.957974
LeftFoot  -7.65079 0.155992 -3.48887
LeftToes  4.78904e-008 1.4679e-008 1.35657e-009
219
root  -5.30155 40.4678 0.340142 2.16577 -79.8827 -3.30347
RightUpLeg  1.37794 -5.29912 -2.59157
RightLeg  9.52802 -30.9598 -2.5713
RightFoot  -5.33706 -0.318777 5.3823
RightToes  -3.11842e-008 1.75238e-005 3.56266e-009
Spine  1.55748 -2.15354 -6.68368
Spine1  9.82365 -3.30269 5.06435
HEad  -30.495 5.57345 -5.52796
LeftShoulder1  3.68458 -7.11293 -28.6692
LeftArm  12.2335 -16.8715 -51.4016
LeftForeArm  163.905 -66.7518 -156.543
LeftHand  -0.935221 -6.18524 9.68397
RightShoulder  2.79255 5.81977 23.8117
RightArm  22.4217 -44.9938 22.2888
RightForeArm  122.18 78.962 117.082
RightHand  -1.25811 11.3282 -9.10887
LeftUpLeg  -2.82602 0.552733 2.83027
LeftLeg  11.578 2.04537 0.874099
LeftFoot  -6.84657 0.123174 -2.09321
LeftToes  4.78904e-008 1.4679e-008 1.35657e-009
220
root  -5.19932 40.5208 0.562703 -2.56494 -82.1789 0.951294
RightUpLeg  0.162662 -7.07053 -3.73042
RightLeg  12.0943 -26.8435 -4.03107
RightFoot  -5.08029 -0.367185 6.06746
RightToes  -3.11842e-008 1.75238e-005 3.56266e-009
Spine  1.50076 -1.10698 -8.9518
Spine1  11.2113 -2.61503 5.97404
HEad  -30.7357 4.20975 -4.70641
LeftShoulder1  4.00193 -7.58437 -30.0813
LeftArm  11.7812 -8.50464 -47.8503
LeftForeArm  160.504 -69.0928 -153.359
LeftHand  -0.920342 -5.63347 9.99546
RightShoulder  3.02714 5.94489 25.9974
RightArm  17.5755 -38.6607 26.0117
RightForeArm  121.602 79.1976 115.228
RightHand  -1.18951 11.286 -8.65611
LeftUpLeg  -1.09279 1.8621 2.10877
LeftLeg  9.6825 3.13902 0.283451
LeftFoot  -6.01033 0.103607 -1.43782
LeftToes  4.78904e-008 1.4679e-008 1.35657e-009
221
root  -5.06692 40.5224 0.820667 -8.09784 -85.4168 6.29999
RightUpLeg  -2.70639 -9.68737 -4.15989
RightLeg  16.3507 -21.0286 -6.05855
RightFoot  -4.26447 -0.456728 6.90898
RightToes  -3.11842e-008 1.75238e-005 3.56266e-009
Spine  2.17126 0.00399224 -9.31429
Spine1  10.9058 -1.52983 5.89295
HEad  -30.8196 3.82931 -4.71761
LeftShoulder1  4.30132 -7.93444 -31.6116
LeftArm  10.3819 2.00133 -43.8095
LeftForeArm  158.055 -71.1916 -149.962
LeftHand  -0.972976 -4.93138 11.2154
RightShoulder  3.39352 6.4231 28.2255
RightArm  13.9854 -31.6182 29.6692
RightForeArm  121.76 79.204 115.237
RightHand  -1.13997 10.9785 -8.46265
LeftUpLeg  -0.223771 2.6642 1.99313
LeftLeg  8.98292 5.51902 -0.490905
LeftFoot  -5.8929 0.086931 -1.0885
LeftToes  4.78904e-008 1.4679e-008 1.35657e-009
222
root  -4.97441 40.5262 1.0824 -11.796 -89.6485 9.97058
RightUpLeg  -6.07564 -9.19137 -3.91448
RightLeg  20.6213 -16.9553 -7.22651
RightFoot  -2.6992 -0.55469 7.09063
RightToes  -3.11842e-008 1.75238e-005 3.56266e-009
Spine  2.58423 0.899588 -7.94507
Spine1  10.3614 -0.249511 4.16817
HEad  -30.4466 4.66516 -5.17504
LeftShoulder1  4.49378 -8.12119 -32.6689
LeftArm  7.74063 14.522 -40.2051
LeftForeArm  158.813 -72.5497 -147.702
LeftHand  -1.09736 -4.72762 12.8396
RightShoulder  3.83036 7.08291 30.266
RightArm  12.0004 -23.2663 33.5806
RightForeArm  123.04 79.0623 116.703
RightHand  -1.15667 10.7821 -8.67661
LeftUpLeg  0.567997 2.66745 1.85532
LeftLeg  8.28417 9.81622 -0.410382
LeftFoot  -5.88504 0.0792467 -0.954163
LeftToes  4.78904e-008 1.4679e-008 1.35657e-009
223
root  -4.88688 40.5082 1.31938 179.699 -86.1323 178.715
RightUpLeg  -9.66966 -6.70375 -3.64367
RightLeg  24.8348 -14.5614 -7.43037
RightFoot  -1.55611 -0.654952 7.53384
RightToes  -3.11842e-008 1.75238e-005 3.56266e-009
Spine  3.28372 1.53896 -6.28896
Spine1  9.17846 0.854929 2.0763
HEad  -29.7881 4.59054 -5.23691
LeftShoulder1  4.40231 -7.89681 -32.6232
LeftArm  4.90324 27.3062 -37.8419
LeftForeArm  160.717 -72.9341 -147.258
LeftHand  -1.20337 -5.01716 13.6756
RightShoulder  4.25886 7.8012 31.7788
RightArm  11.583 -14.0854 37.5213
RightForeArm  125.651 78.8904 118.76
RightHand  -1.07835 10.998 -8.02339
LeftUpLeg  0.824415 3.05178 1.7609
LeftLeg  7.99888 13.668 -0.125123
LeftFoot  -5.99273 0.0796541 -0.975295
LeftToes  4.78904e-008 1.4679e-008 1.35657e-009
224
root  -4.8381 40.5171 1.50477 175.705 -82.2368 -177.336
RightUpLeg  -12.2024 -4.38531 -3.39052
RightLeg  27.9855 -11.1278 -6.576
RightFoot  -2.02804 -0.78291 9.41493
RightToes  -3.11842e-008 1.75238e-005 3.56266e-009
Spine  3.6964 2.13311 -5.1986
Spine1  8.78959 1.70627 0.86162
HEad  -29.8862 4.66949 -5.20228
LeftShoulder1  4.03994 -7.15485 -31.9118
LeftArm  2.71547 39.2337 -36.4726
LeftForeArm  161.468 -72.1828 -148.767
LeftHand  -1.25152 -4.90891 14.3466
RightShoulder  4.54633 8.3351 32.5083
RightArm  12.546 -4.31465 41.6403
RightForeArm  127.346 78.7594 120.142
RightHand  -1.25314 10.5587 -9.47677
LeftUpLeg  1.64183 3.40334 1.80519
LeftLeg  7.22918 17.1128 0.018631
LeftFoot  -5.8316 0.0945446 -1.24046
LeftToes  4.78904e-008 1.4679e-008 1.35657e-009
225
root  -4.82266 40.541 1.63597 174.308 -79.1217 -175.87
RightUpLeg  -13.7687 -1.66443 -2.99589
RightLeg  29.6468 -9.42925 -5.98934
RightFoot  -1.5514 -1.0093 11.6004
RightToes  -3.11842e-008 1.75238e-005 3.56266e-009
Spine  3.47508 2.73296 -4.21948
Spine1  9.05266 2.48856 0.189759
HEad  -30.3191 4.44848 -4.64926
LeftShoulder1  3.60072 -6.50563 -29.9273
LeftArm  1.41075 49.4501 -36.3002
LeftForeArm  162.838 -71.1985 -150.634
LeftHand  -1.26309 -4.8903 14.5021
RightShoulder  4.76708 8.93989 32.4076
RightArm  13.1867 4.04944 45.6459
RightForeArm  129.964 78.3795 123.139
RightHand  -1.38107 10.829 -10.2434
LeftUpLeg  2.32116 3.31992 1.75638
LeftLeg  6.33867 20.3254 0.462911
LeftFoot  -5.53537 0.108826 -1.50431
LeftToes  4.78904e-008 1.4679e-008 1.35657e-009
226
root  -4.85315 40.5585 1.69962 172.565 -76.8997 -174.016
RightUpLeg  -14.2558 0.46171 -2.50375
RightLeg  29.69 -8.57797 -5.48218
RightFoot  -0.329251 -1.25473 12.9596
RightToes  -3.11842e-008 1.75238e-005 3.56266e-009
Spine  3.29078 3.46785 -3.26128
Spine1  8.88157 3.36363 -0.319088
HEad  -30.1161 4.00179 -3.39595
LeftShoulder1  3.02633 -5.6659 -26.9295
LeftArm  3.02018 57.688 -35.5456
LeftForeArm  164.547 -70.198 -152.377
LeftHand  -1.27421 -5.31992 14.0606
RightShoulder  4.79891 9.15267 32.0058
RightArm  13.5646 10.2845 48.7438
RightForeArm  134.355 77.64 128.045
RightHand  -1.33904 10.7506 -9.98985
LeftUpLeg  2.71081 3.2798 1.91196
LeftLeg  5.94945 22.6104 1.03267
LeftFoot  -5.41183 0.126924 -1.82486
LeftToes  4.78904e-008 1.4679e-008 1.35657e-009
227
root  -4.90199 40.5704 1.69327 172.273 -75.3986 -173.571
RightUpLeg  -13.9649 2.02375 -2.19948
RightLeg  28.382 -8.34361 -5.07959
RightFoot  1.02859 -1.32504 12.2599
RightToes  -3.11842e-008 1.75238e-005 3.56266e-009
Spine  2.77996 4.50253 -3.16122
Spine1  8.72554 4.29889 0.290895
HEad  -28.8726 2.89206 -2.18923
LeftShoulder1  2.80293 -5.55114 -24.7821
LeftArm  8.21883 63.3561 -31.325
LeftForeArm  164.393 -69.0191 -153.968
LeftHand  -1.26813 -5.51648 13.7574
RightShoulder  4.5306 8.86808 30.7046
RightArm  13.8209 14.9532 51.0002
RightForeArm  138.077 76.7589 132.603
RightHand  -1.42952 10.9559 -10.5099
LeftUpLeg  2.91988 3.28113 2.01215
LeftLeg  5.76588 24.0942 1.33313
LeftFoot  -5.33903 0.140981 -2.06918
LeftToes  4.78904e-008 1.4679e-008 1.35657e-009
228
root  -4.99076 40.5958 1.64614 171.333 -75.1202 -172.49
RightUpLeg  -12.5615 2.56477 -1.88977
RightLeg  25.5491 -8.83496 -4.78405
RightFoot  2.21689 -1.32285 11.219
RightToes  -3.11842e-008 1.75238e-005 3.56266e-009
Spine  1.88173 4.95113 -2.46721
Spine1  9.12804 4.79804 0.229633
HEad  -27.764 1.71287 -1.30359
LeftShoulder1  2.72858 -5.72104 -23.3332
LeftArm  14.9857 65.9587 -25.1907
LeftForeArm  164.171 -68.3906 -154.724
LeftHand  -1.244 -5.75121 13.2292
RightShoulder  4.37152 8.71561 29.8426
RightArm  13.7964 18.2834 52.28
RightForeArm  141.134 75.9149 136.207
RightHand  -1.46991 11.4792 -10.4805
LeftUpLeg  3.09559 3.37273 2.3343
LeftLeg  5.5363 24.2226 1.36392
LeftFoot  -5.3342 0.147335 -2.18746
LeftToes  4.78904e-008 1.4679e-008 1.35657e-009
229
root  -5.08132 40.6134 1.53548 170.934 -75.5983 -172.042
RightUpLeg  -10.5742 3.29729 -1.71381
RightLeg  22.3777 -9.95953 -4.6836
RightFoot  2.20085 -1.27221 10.8069
RightToes  -3.11842e-008 1.75238e-005 3.56266e-009
Spine  1.33179 5.15379 -2.51548
Spine1  8.97185 4.88017 0.787664
HEad  -26.3486 0.735762 -0.724785
LeftShoulder1  2.73743 -5.9753 -22.5877
LeftArm  21.4338 66.0249 -18.8194
LeftForeArm  164.599 -68.0043 -155.239
LeftHand  -1.31334 -5.85888 13.8189
RightShoulder  4.21207 8.63237 28.7526
RightArm  13.8035 19.8726 52.8292
RightForeArm  142.667 75.0987 138.982
RightHand  -1.34868 10.2612 -10.356
LeftUpLeg  3.17838 3.41039 2.55509
LeftLeg  5.53621 23.6445 1.35794
LeftFoot  -5.38334 0.155455 -2.33699
LeftToes  4.78904e-008 1.4679e-008 1.35657e-009
230
root  -5.17523 40.6274 1.39008 171.143 -76.51 -172.302
RightUpLeg  -8.16019 3.77734 -1.68387
RightLeg  19.1303 -10.8553 -4.35531
RightFoot  0.1645 -1.05748 10.487
RightToes  -3.11842e-008 1.75238e-005 3.56266e-009
Spine  0.383618 5.03438 -2.28781
Spine1  9.73843 4.83619 0.596386
HEad  -25.026 -0.210506 0.226822
LeftShoulder1  2.68549 -5.91853 -22.1883
LeftArm  24.0012 63.5451 -16.0069
LeftForeArm  164.792 -67.907 -155.377
LeftHand  -1.29358 -5.90947 13.547
RightShoulder  4.13237 8.50143 28.4527
RightArm  13.6803 20.5388 52.6178
RightForeArm  144.648 74.5829 140.758
RightHand  -1.28784 11.1421 -9.41238
LeftUpLeg  3.41121 3.3404 2.61189
LeftLeg  5.29499 22.7999 1.1728
LeftFoot  -5.34758 0.154854 -2.34823
LeftToes  4.78904e-008 1.4679e-008 1.35657e-009
